<svg id="Capa_1" enable-background="new 0 0 512 512" height="512" viewBox="0 0 512 512" width="512" xmlns="http://www.w3.org/2000/svg"><g><g><path d="m256 87.757c-24.713-38.462-67.874-63.943-116.987-63.943-76.743 0-138.955 61.155-138.955 138.954 0 22.323-10.643 153.646 255.942 325.418l20-218.004z" fill="#ff415b"/><path d="m511.942 162.768c0-77.8-62.212-138.955-138.955-138.955-49.113 0-92.274 25.481-116.987 63.943v400.43c266.585-171.772 255.942-303.095 255.942-325.418z" fill="#d10050"/></g><g><path d="m224.133 186.303v37.83h-37.83v63.734h37.83v37.83h31.867l20-69.697-20-69.697z" fill="#fcf2b6"/><path d="m287.867 224.133v-37.83h-31.867v139.394h31.867v-37.83h37.83v-63.734z" fill="#fad17f"/></g></g></svg>