<svg id="Capa_1" enable-background="new 0 0 512.006 512.006" height="512" viewBox="0 0 512.006 512.006" width="512" xmlns="http://www.w3.org/2000/svg"><g><path d="m301.003 173.967h-90v35.613h-35.613v90h35.613v35.613h90v-35.613h35.613v-90h-35.613zm5.613 65.614v30h-35.613v35.613h-30v-35.613h-35.613v-30h35.613v-35.613h30v35.613z"/><path d="m511.969 168.949c-.011-.808-.021-1.521-.021-2.138 0-39.333-15.177-76.093-42.735-103.506-27.426-27.282-64.032-42.307-103.077-42.307-42.78 0-82.628 18.453-110.133 50.216-27.505-31.762-67.353-50.215-110.133-50.215-39.045 0-75.651 15.025-103.077 42.307-27.559 27.413-42.735 64.172-42.735 103.506 0 .617-.01 1.33-.021 2.138-.196 14.834-.717 54.237 31.188 110.865 38.946 69.126 111.839 138.42 216.653 205.958l8.125 5.235 8.125-5.235c104.814-67.537 177.707-136.831 216.653-205.958 31.904-56.628 31.384-96.032 31.188-110.866zm-57.326 96.14c-35.537 63.076-102.338 127.028-198.641 190.183-96.302-63.155-163.103-127.107-198.64-190.183-27.938-49.587-27.495-83.12-27.328-95.743.013-.958.023-1.803.023-2.534 0-31.291 12.036-60.496 33.893-82.237 21.766-21.652 50.858-33.576 81.92-33.576 39.613 0 76.067 19.927 97.514 53.305l12.619 19.641 12.619-19.641c21.446-33.378 57.9-53.305 97.514-53.305 31.062 0 60.154 11.924 81.92 33.576 21.856 21.741 33.893 50.947 33.893 82.237 0 .731.011 1.577.023 2.534.167 12.623.61 46.156-27.329 95.743z"/></g></svg>